<svg width="155" height="154" viewBox="0 0 155 154" fill="none" xmlns="http://www.w3.org/2000/svg">
<path d="M36.6296 95.2349L31.1941 104.596C31.215 107.096 31.215 107.096 33.6207 107.776L49.8395 103.479M36.6296 95.2349L49.8395 103.479M36.6296 95.2349L46.4135 78.385M49.8395 103.479L73.906 97.1029M46.4135 78.385L53.8874 65.5136M46.4135 78.385L56.4828 85.2405M73.906 97.1029L91.6943 92.3902L82.634 80.5177M73.906 97.1029L67.0329 92.4234L63.5963 90.0837M60.1598 87.744L59.9992 87.6347M53.8874 65.5136L61.3612 52.6422L82.634 80.5177M53.8874 65.5136C71.636 79.87 80.447 81.4982 82.634 80.5177M93.3825 82.2397C111.298 72.0897 124.068 80.4167 128.214 85.8489M71.0784 54.6611C89.4295 39.1473 86.8036 21.6952 84.8547 15.8447M87.7513 63.3221L104.048 50.8856M111.65 58.3746L113.956 61.3969M116.99 65.3717L119.296 68.394M117.858 61.5643L120.88 59.2579M110.066 67.5107L113.088 65.2043M90.4509 44.28L89.2977 42.7688M93.4842 48.2548L94.6374 49.7659M94.3525 44.4474L95.8636 43.2942M89.5827 48.0874L88.0716 49.2406M137.394 92.1085L136.734 97.0142L131.829 96.3551L132.488 91.4494L137.394 92.1085ZM82.5955 8.76328L84.3004 9.34906L81.518 11.4724L82.5955 8.76328ZM118.357 39.9657L109.948 38.8359L108.818 47.2456L117.228 48.3754L118.357 39.9657Z" stroke="#7C3ADE" stroke-width="3" stroke-linecap="round" stroke-linejoin="round"/>
</svg>
