<svg width="85" height="80" viewBox="0 0 85 80" fill="none" xmlns="http://www.w3.org/2000/svg">
<path d="M78.6702 68.5017L82.8249 75.6571C82.809 77.5679 82.809 77.5679 80.9701 78.0876L68.5729 74.8032M78.6702 68.5017L68.5729 74.8032M78.6702 68.5017L71.1916 55.6222M68.5729 74.8032L50.1772 69.9296M71.1916 55.6222L65.4788 45.7836M71.1916 55.6222L63.495 60.8623M50.1772 69.9296L36.5803 66.3273L43.5058 57.2523M50.1772 69.9296L55.4308 66.3527L58.0576 64.5643M60.6844 62.7759L60.8071 62.6923M65.4788 45.7836L59.7661 35.9451L43.5058 57.2523M65.4788 45.7836C51.9123 56.7572 45.1774 58.0018 43.5058 57.2523M35.2899 58.5686C21.5955 50.8102 11.8345 57.1751 8.66578 61.3273M52.3385 37.4883C38.3115 25.6299 40.3186 12.2901 41.8083 7.81809M39.5942 44.1085L27.1375 34.6024M21.3267 40.3268L19.5638 42.6369M17.2452 45.6751L15.4822 47.9853M16.5815 42.7649L14.2714 41.0019M22.5376 47.3101L20.2274 45.5472M37.5307 29.5532L38.4122 28.3982M35.2121 32.5915L34.3306 33.7465M34.5485 29.6812L33.3934 28.7997M38.1943 32.4635L39.3494 33.345M1.64913 66.112L2.15289 69.8618L5.90265 69.358L5.39889 65.6082L1.64913 66.112ZM43.5352 2.40529L42.232 2.85304L44.3587 4.47604L43.5352 2.40529ZM16.1999 26.2555L22.628 25.3919L23.4916 31.8201L17.0634 32.6837L16.1999 26.2555Z" stroke="#7C3ADE" stroke-width="3" stroke-linecap="round" stroke-linejoin="round"/>
</svg>
