<svg width="91" height="90" viewBox="0 0 91 90" fill="none" xmlns="http://www.w3.org/2000/svg">
<path d="M69.7801 81.1184L69.5897 81.1235L69.4066 81.176C66.0174 82.1483 62.3427 82.6818 58.5 82.6818C40.9951 82.6818 27.5 71.782 27.5 59.0909C27.5 46.3998 40.9951 35.5 58.5 35.5C76.0048 35.5 89.5 46.3998 89.5 59.0909C89.5 64.3792 87.2014 69.3092 83.2245 73.3056L82.6326 73.9003L82.8296 74.7158C82.9967 75.4074 83.1588 76.0036 83.3052 76.5418C83.7109 78.0334 83.9953 79.0793 83.9264 80.4714C83.8545 81.9251 83.3654 83.7902 81.9015 86.7459C81.1973 85.6644 80.2841 84.6148 79.0956 83.7174C76.8911 82.0528 73.8678 81.0089 69.7801 81.1184Z" stroke="#7C3ADE" stroke-width="3"/>
<path d="M39.0733 28.0185L39.2613 28.0235L39.4422 28.0747C41.4771 28.6506 43.6866 28.9675 46 28.9675C51.2242 28.9675 55.8979 27.3529 59.2332 24.8124C62.5674 22.2728 64.5 18.8724 64.5 15.2338C64.5 11.5951 62.5674 8.19472 59.2332 5.65514C55.8979 3.11463 51.2242 1.5 46 1.5C40.7758 1.5 36.1021 3.11463 32.7668 5.65514C29.4326 8.19472 27.5 11.5951 27.5 15.2338C27.5 18.2574 28.8301 21.1049 31.1867 23.4413L31.7895 24.0388L31.5876 24.8632C31.4718 25.3362 31.365 25.7241 31.2724 26.0603C31.0356 26.92 30.8919 27.4418 30.9291 28.1846C30.9611 28.8213 31.1475 29.6481 31.7098 30.9085C32.0702 30.4837 32.4919 30.0775 32.9859 29.7095C34.4607 28.6107 36.4511 27.9492 39.0733 28.0185Z" stroke="#7C3ADE" stroke-width="3"/>
<path d="M17.4887 40.6004L17.3015 40.6053L17.1213 40.6561C15.8452 41.0156 14.4566 41.2143 13 41.2143C9.70718 41.2143 6.78258 40.2005 4.7139 38.6319C2.64624 37.0642 1.5 35.0082 1.5 32.8571C1.5 30.7061 2.64624 28.6501 4.7139 27.0823C6.78258 25.5138 9.70718 24.5 13 24.5C16.2928 24.5 19.2174 25.5138 21.2861 27.0823C23.3538 28.6501 24.5 30.7061 24.5 32.8571C24.5 34.6469 23.7109 36.359 22.2614 37.7895L21.655 38.388L21.8585 39.2154C21.9475 39.5774 22.0236 39.852 22.0854 40.0751C22.2245 40.5776 22.2914 40.8193 22.2717 41.2103C22.2611 41.4207 22.2171 41.6887 22.0955 42.0581C21.9923 41.9687 21.8839 41.8816 21.7702 41.7973C20.7039 41.0064 19.2913 40.553 17.4887 40.6004Z" stroke="#7C3ADE" stroke-width="3"/>
</svg>
