<svg width="144" height="144" viewBox="0 0 144 144" fill="none" xmlns="http://www.w3.org/2000/svg">
<g id="GrapeWine_logo" clip-path="url(#clip0)">
<g id="Group">
<g id="Group_2">
<g id="Group_3">
<path id="Vector" d="M28.4415 73.4444C43.8317 73.4444 56.3079 60.9682 56.3079 45.578C56.3079 30.1878 43.8317 17.7117 28.4415 17.7117C13.0514 17.7117 0.575195 30.1878 0.575195 45.578C0.575195 60.9682 13.0514 73.4444 28.4415 73.4444Z" fill="#CD9EFA"/>
<path id="Vector_2" d="M28.4416 70.4924C42.2014 70.4924 53.356 59.3379 53.356 45.578C53.356 31.8182 42.2014 20.6636 28.4416 20.6636C14.6817 20.6636 3.52716 31.8182 3.52716 45.578C3.52716 59.3379 14.6817 70.4924 28.4416 70.4924Z" stroke="#381251" stroke-width="5.86517" stroke-linejoin="round"/>
</g>
<g id="Group_4">
<path id="Vector_3" d="M49.6955 107.562C65.0857 107.562 77.5619 95.0853 77.5619 79.6952C77.5619 64.305 65.0857 51.8288 49.6955 51.8288C34.3054 51.8288 21.8292 64.305 21.8292 79.6952C21.8292 95.0853 34.3054 107.562 49.6955 107.562Z" fill="#CD9EFA"/>
<path id="Vector_4" d="M49.6955 104.61C63.4553 104.61 74.6099 93.455 74.6099 79.6952C74.6099 65.9353 63.4553 54.7808 49.6955 54.7808C35.9357 54.7808 24.7811 65.9353 24.7811 79.6952C24.7811 93.455 35.9357 104.61 49.6955 104.61Z" stroke="#381251" stroke-width="5.86517" stroke-linejoin="round"/>
</g>
<g id="Group_5">
<path id="Vector_5" d="M70.9495 143.11C86.3396 143.11 98.8158 130.634 98.8158 115.244C98.8158 99.8537 86.3396 87.3775 70.9495 87.3775C55.5593 87.3775 43.0831 99.8537 43.0831 115.244C43.0831 130.634 55.5593 143.11 70.9495 143.11Z" fill="#CD9EFA"/>
<path id="Vector_6" d="M70.9495 140.158C84.7093 140.158 95.8639 129.004 95.8639 115.244C95.8639 101.484 84.7093 90.3295 70.9495 90.3295C57.1896 90.3295 46.0351 101.484 46.0351 115.244C46.0351 129.004 57.1896 140.158 70.9495 140.158Z" stroke="#381251" stroke-width="5.86517" stroke-linejoin="round"/>
</g>
<g id="Group_6">
<path id="Vector_7" d="M70.9495 73.4444C86.3396 73.4444 98.8158 60.9682 98.8158 45.578C98.8158 30.1879 86.3396 17.7117 70.9495 17.7117C55.5593 17.7117 43.0831 30.1879 43.0831 45.578C43.0831 60.9682 55.5593 73.4444 70.9495 73.4444Z" fill="#CD9EFA"/>
<path id="Vector_8" d="M70.9495 70.4924C84.7093 70.4924 95.8639 59.3379 95.8639 45.578C95.8639 31.8182 84.7093 20.6636 70.9495 20.6636C57.1896 20.6636 46.0351 31.8182 46.0351 45.578C46.0351 59.3379 57.1896 70.4924 70.9495 70.4924Z" stroke="#381251" stroke-width="5.86517" stroke-linejoin="round"/>
</g>
<g id="Group_7">
<path id="Vector_9" d="M92.2035 107.562C107.594 107.562 120.07 95.0853 120.07 79.6952C120.07 64.305 107.594 51.8288 92.2035 51.8288C76.8133 51.8288 64.3371 64.305 64.3371 79.6952C64.3371 95.0853 76.8133 107.562 92.2035 107.562Z" fill="#CD9EFA"/>
<path id="Vector_10" d="M92.2035 104.61C105.963 104.61 117.118 93.455 117.118 79.6952C117.118 65.9353 105.963 54.7808 92.2035 54.7808C78.4437 54.7808 67.2891 65.9353 67.2891 79.6952C67.2891 93.455 78.4437 104.61 92.2035 104.61Z" stroke="#381251" stroke-width="5.86517" stroke-linejoin="round"/>
</g>
<g id="Group_8">
<path id="Vector_11" d="M115.819 73.4444C131.209 73.4444 143.685 60.9682 143.685 45.578C143.685 30.1879 131.209 17.7117 115.819 17.7117C100.429 17.7117 87.9527 30.1879 87.9527 45.578C87.9527 60.9682 100.429 73.4444 115.819 73.4444Z" fill="#CD9EFA"/>
<path id="Vector_12" d="M115.819 70.4924C129.579 70.4924 140.733 59.3379 140.733 45.578C140.733 31.8182 129.579 20.6636 115.819 20.6636C102.059 20.6636 90.9047 31.8182 90.9047 45.578C90.9047 59.3379 102.059 70.4924 115.819 70.4924Z" stroke="#381251" stroke-width="5.86517" stroke-linejoin="round"/>
</g>
</g>
<path id="Vector_13" d="M41.6662 0H102.594C104.974 0 107.257 0.945463 108.94 2.6284C110.623 4.31133 111.568 6.59388 111.568 8.97391H32.6923C32.6923 6.59388 33.6377 4.31133 35.3207 2.6284C37.0036 0.945463 39.2861 0 41.6662 0V0Z" fill="#381251"/>
<path id="Vector_14" d="M76.6172 21.9625V0L67.6433 0V21.9625H76.6172Z" fill="#381251"/>
</g>
</g>
<defs>
<clipPath id="clip0">
<rect width="143.11" height="143.11" fill="white" transform="translate(0.575195)"/>
</clipPath>
</defs>
</svg>
