<svg width="97" height="92" viewBox="0 0 97 92" fill="none" xmlns="http://www.w3.org/2000/svg">
<path d="M77.6571 72.3603L82.5929 61.9734L87.5287 51.5864L76.5441 42.0837L74.8837 45.5777L63.3519 69.8455L77.6571 72.3603Z" fill="#7C3ADE"/>
<path d="M33.7825 5.09077L27.8978 0L-2.59503e-05 58.7087L7.66351 60.0559L30.8091 11.3479L33.7825 5.09077Z" fill="#7C3ADE"/>
<path d="M76.5441 42.0837L33.7825 5.09077L30.8091 11.3479L74.8837 45.5777L76.5441 42.0837Z" fill="#7C3ADE"/>
<path d="M51.6011 67.7798L63.3519 69.8455L65.0122 66.3515L10.6369 53.7987L7.66351 60.0559L51.6011 67.7798Z" fill="#7C3ADE"/>
<path d="M63.3519 69.8455L51.6011 67.7798C51.6011 67.7798 51.1563 78.0355 56.9824 78.5897C62.8085 79.1438 63.3519 69.8455 63.3519 69.8455Z" fill="#7C3ADE"/>
</svg>
