<svg width="74" height="77" viewBox="0 0 74 77" fill="none" xmlns="http://www.w3.org/2000/svg">
<path d="M69.4102 4.21933C67.1272 2.26608 62.9048 -2 52.9357 8.42768L65.9464 20.8663C75.9156 10.4387 71.4641 6.4123 69.4102 4.21933Z" fill="#7C3ADE"/>
<path d="M2.89381 70.0138L1.68859 75.0556L6.67113 73.6251L2.89381 70.0138Z" fill="#7C3ADE"/>
<path d="M10.6526 52.6554L5.83992 57.6895L18.8507 70.1281L23.6634 65.0941L10.6526 52.6554Z" fill="#7C3ADE"/>
<path d="M52.9357 8.42768C62.9048 -2 67.1272 2.26608 69.4102 4.21933C71.4641 6.4123 75.9156 10.4387 65.9464 20.8663M52.9357 8.42768L65.9464 20.8663M52.9357 8.42768L10.6526 52.6554M5.83992 57.6895L10.6526 52.6554M5.83992 57.6895L2.89381 70.0138M5.83992 57.6895L18.8507 70.1281M65.9464 20.8663L23.6634 65.0941M18.8507 70.1281L23.6634 65.0941M18.8507 70.1281L6.67113 73.6251M10.6526 52.6554L23.6634 65.0941M2.89381 70.0138L1.68859 75.0556L6.67113 73.6251M2.89381 70.0138L6.67113 73.6251M54.2846 20.0406L33.3149 41.9747M29.1898 46.2896L23.3458 52.4024" stroke="#7C3ADE" stroke-width="2" stroke-linecap="round"/>
</svg>
